# Saving the XML content to a draw.io-compatible file format
xml_content = """
<mxfile host="Electron" agent="Mozilla/5.0 (Windows NT 10.0; Win64; x64) AppleWebKit/537.36 (KHTML, like Gecko) draw.io/24.7.17 Chrome/128.0.6613.36 Electron/32.0.1 Safari/537.36" version="24.7.17">
  <diagram name="FCS UML Class Diagram" id="fcs-uml">
    <mxGraphModel dx="2266" dy="1936" grid="1" gridSize="10" guides="1" tooltips="1" connect="1" arrows="1" fold="1" page="1" pageScale="1" pageWidth="850" pageHeight="1100" math="0" shadow="0">
      <root>
        <mxCell id="0" />
        <mxCell id="1" parent="0" />
        <mxCell id="Patient" value="Patient" style="shape=swimlane;rounded=0;childLayout=stackLayout;horizontal=1;startSize=25;" parent="1" vertex="1" connectable="0">
          <mxGeometry x="-240" y="-112.5" width="350" height="190" as="geometry" />
        </mxCell>
        <mxCell id="Patient_Attributes" value="patientID: int&#xa;firstName: string&#xa;lastName: string&#xa;email: string&#xa;phone: string&#xa;address: string&#xa;insuranceInfo: string" parent="Patient" vertex="1" connectable="0">
          <mxGeometry y="25" width="180" height="165" as="geometry" />
        </mxCell>
        <mxCell id="Patient_Operations" value="+scheduleAppointment(): void&#xa;+cancelAppointment(): void&#xa;+viewAppointment(): void" parent="Patient" vertex="1" connectable="0">
          <mxGeometry x="180" y="25" width="170" height="165" as="geometry" />
        </mxCell>
        <mxCell id="Appointment" value="Appointment" style="shape=swimlane;rounded=0;childLayout=stackLayout;horizontal=1;startSize=25;" parent="1" vertex="1" connectable="0">
          <mxGeometry x="270" y="-150" width="200" height="160" as="geometry" />
        </mxCell>
        <mxCell id="ClinicalStaff" value="ClinicalStaff" style="shape=swimlane;rounded=0;childLayout=stackLayout;horizontal=1;startSize=25;" parent="1" vertex="1" connectable="0">
          <mxGeometry x="520" y="-50" width="180" height="130" as="geometry" />
        </mxCell>
        <mxCell id="ClinicalStaff_Attributes" value="staffID: int&#xa;name: string&#xa;specialization: string&#xa;phone: string&#xa;email: string&#xa;appointments: Set&lt;Appointment&gt;" parent="ClinicalStaff" vertex="1" connectable="0">
          <mxGeometry y="25" width="180" height="105" as="geometry" />
        </mxCell>
        <mxCell id="Administrator" value="Administrator" style="shape=swimlane;rounded=0;childLayout=stackLayout;horizontal=1;startSize=25;" parent="1" vertex="1" connectable="0">
          <mxGeometry x="250" y="180" width="200" height="90" as="geometry" />
        </mxCell>
        <mxCell id="Administrator_Attributes" value="adminID: int&#xa;name: string&#xa;username: string&#xa;role: string" parent="Administrator" vertex="1" connectable="0">
          <mxGeometry y="25" width="200" height="65" as="geometry" />
        </mxCell>
        <mxCell id="Availability" value="Availability" style="shape=swimlane;rounded=0;childLayout=stackLayout;horizontal=1;startSize=25;" parent="1" vertex="1" connectable="0">
          <mxGeometry x="480" y="180" width="180" height="90" as="geometry" />
        </mxCell>
        <mxCell id="Availability_Attributes" value="availabilityID: int&#xa;date: Date&#xa;time: Time&#xa;staff: ClinicalStaff" parent="Availability" vertex="1" connectable="0">
          <mxGeometry y="25" width="180" height="65" as="geometry" />
        </mxCell>
        <mxCell id="relationship1" style="edgeStyle=orthogonalEdgeStyle;rounded=0;jettySize=auto;html=1;exitX=1;exitY=0.5;entryX=0;entryY=0.5;" parent="1" source="Patient" target="Appointment" edge="1">
          <mxGeometry relative="1" as="geometry" />
        </mxCell>
        <mxCell id="relationship2" style="edgeStyle=orthogonalEdgeStyle;rounded=0;jettySize=auto;html=1;exitX=1;exitY=0.5;entryX=0;entryY=0.5;" parent="1" source="Appointment" target="ClinicalStaff" edge="1">
          <mxGeometry relative="1" as="geometry" />
        </mxCell>
        <mxCell id="relationship3" style="edgeStyle=orthogonalEdgeStyle;rounded=0;jettySize=auto;html=1;exitX=1;exitY=0.5;entryX=0;entryY=0.5;" parent="1" edge="1">
          <mxGeometry relative="1" as="geometry">
            <mxPoint x="40" y="240" as="sourcePoint" />
            <mxPoint x="190" y="-30" as="targetPoint" />
            <Array as="points">
              <mxPoint x="40" y="241" />
              <mxPoint x="191" y="241" />
            </Array>
          </mxGeometry>
        </mxCell>
        <mxCell id="Appointment_Operations" value="+confirmAppointment(): void&#xa;+reschedule(): void&#xa;+cancel(): void" parent="1" vertex="1" connectable="0">
          <mxGeometry x="270" y="-30" width="200" height="60" as="geometry" />
        </mxCell>
        <mxCell id="Appointment_Attributes" value="appointmentID: int&#xa;date: Date&#xa;time: Time&#xa;status: string&#xa;patient: Patient&#xa;clinicalStaff: ClinicalStaff" parent="1" vertex="1" connectable="0">
          <mxGeometry x="270" y="-130" width="200" height="100" as="geometry" />
        </mxCell>
        <mxCell id="Administrator_Operations" value="+manageUsers(): void&#xa;+updateSystemSettings(): void" parent="1" vertex="1" connectable="0">
          <mxGeometry x="250" y="270" width="200" height="75" as="geometry" />
        </mxCell>
        <mxCell id="Availability_Operations" value="+updateAvailability(): void" parent="1" vertex="1" connectable="0">
          <mxGeometry x="480" y="270" width="180" height="30" as="geometry" />
        </mxCell>
        <mxCell id="uOT9ADOd0ayZj9XXUybo-1" value="Receptionist" style="shape=swimlane;rounded=0;childLayout=stackLayout;horizontal=1;startSize=25;" vertex="1" connectable="0" parent="1">
          <mxGeometry x="-250" y="150" width="390" height="160" as="geometry" />
        </mxCell>
        <mxCell id="uOT9ADOd0ayZj9XXUybo-2" value="receptionistID: int&#xa;name: string&#xa;username: string&#xa;phone: string&#xa;appointments: Set&lt;Appointment&gt;" vertex="1" connectable="0" parent="uOT9ADOd0ayZj9XXUybo-1">
          <mxGeometry y="25" width="200" height="135" as="geometry" />
        </mxCell>
        <mxCell id="uOT9ADOd0ayZj9XXUybo-3" value="+manageAppointment(): void" vertex="1" connectable="0" parent="uOT9ADOd0ayZj9XXUybo-1">
          <mxGeometry x="200" y="25" width="190" height="135" as="geometry" />
        </mxCell>
      </root>
    </mxGraphModel>
  </diagram>
</mxfile>
"""

# Save the XML content to a .drawio file
file_path = "/mnt/data/FCS_ClassDiagram.drawio"
with open(file_path, "w") as f:
    f.write(xml_content)

file_path
